<mxfile host="Electron" modified="2023-07-20T16:04:35.708Z" agent="Mozilla/5.0 (Windows NT 10.0; Win64; x64) AppleWebKit/537.36 (KHTML, like Gecko) draw.io/21.6.1 Chrome/112.0.5615.204 Electron/24.6.1 Safari/537.36" etag="2G1b_knw-Raao1i13mIz" version="21.6.1" type="device">
  <diagram name="Page-1" id="2YBvvXClWsGukQMizWep">
    <mxGraphModel dx="940" dy="702" grid="1" gridSize="10" guides="1" tooltips="1" connect="1" arrows="1" fold="1" page="1" pageScale="1" pageWidth="850" pageHeight="1100" math="0" shadow="0">
      <root>
        <mxCell id="0" />
        <mxCell id="1" parent="0" />
        <mxCell id="aM9ryv3xv72pqoxQDRHE-1" value="Gateway-API" style="shape=umlLifeline;perimeter=lifelinePerimeter;whiteSpace=wrap;html=1;container=0;dropTarget=0;collapsible=0;recursiveResize=0;outlineConnect=0;portConstraint=eastwest;newEdgeStyle={&quot;edgeStyle&quot;:&quot;elbowEdgeStyle&quot;,&quot;elbow&quot;:&quot;vertical&quot;,&quot;curved&quot;:0,&quot;rounded&quot;:0};" parent="1" vertex="1">
          <mxGeometry x="210" y="100" width="100" height="640" as="geometry" />
        </mxCell>
        <mxCell id="aM9ryv3xv72pqoxQDRHE-2" value="" style="html=1;points=[];perimeter=orthogonalPerimeter;outlineConnect=0;targetShapes=umlLifeline;portConstraint=eastwest;newEdgeStyle={&quot;edgeStyle&quot;:&quot;elbowEdgeStyle&quot;,&quot;elbow&quot;:&quot;vertical&quot;,&quot;curved&quot;:0,&quot;rounded&quot;:0};" parent="aM9ryv3xv72pqoxQDRHE-1" vertex="1">
          <mxGeometry x="45" y="70" width="10" height="450" as="geometry" />
        </mxCell>
        <mxCell id="aM9ryv3xv72pqoxQDRHE-3" value="route-from-map" style="html=1;verticalAlign=bottom;startArrow=oval;endArrow=classic;startSize=8;edgeStyle=elbowEdgeStyle;elbow=vertical;curved=0;rounded=0;endFill=1;" parent="aM9ryv3xv72pqoxQDRHE-1" target="aM9ryv3xv72pqoxQDRHE-2" edge="1">
          <mxGeometry relative="1" as="geometry">
            <mxPoint x="-45" y="70" as="sourcePoint" />
          </mxGeometry>
        </mxCell>
        <mxCell id="aM9ryv3xv72pqoxQDRHE-5" value="Booking-Service" style="shape=umlLifeline;perimeter=lifelinePerimeter;whiteSpace=wrap;html=1;container=0;dropTarget=0;collapsible=0;recursiveResize=0;outlineConnect=0;portConstraint=eastwest;newEdgeStyle={&quot;edgeStyle&quot;:&quot;elbowEdgeStyle&quot;,&quot;elbow&quot;:&quot;vertical&quot;,&quot;curved&quot;:0,&quot;rounded&quot;:0};" parent="1" vertex="1">
          <mxGeometry x="345" y="100" width="100" height="640" as="geometry" />
        </mxCell>
        <mxCell id="aM9ryv3xv72pqoxQDRHE-6" value="" style="html=1;points=[];perimeter=orthogonalPerimeter;outlineConnect=0;targetShapes=umlLifeline;portConstraint=eastwest;newEdgeStyle={&quot;edgeStyle&quot;:&quot;elbowEdgeStyle&quot;,&quot;elbow&quot;:&quot;vertical&quot;,&quot;curved&quot;:0,&quot;rounded&quot;:0};" parent="aM9ryv3xv72pqoxQDRHE-5" vertex="1">
          <mxGeometry x="45" y="80" width="10" height="180" as="geometry" />
        </mxCell>
        <mxCell id="IHLAlMQquA-5X1Fei5Ps-35" value="" style="html=1;points=[];perimeter=orthogonalPerimeter;outlineConnect=0;targetShapes=umlLifeline;portConstraint=eastwest;newEdgeStyle={&quot;edgeStyle&quot;:&quot;elbowEdgeStyle&quot;,&quot;elbow&quot;:&quot;vertical&quot;,&quot;curved&quot;:0,&quot;rounded&quot;:0};" parent="aM9ryv3xv72pqoxQDRHE-5" vertex="1">
          <mxGeometry x="45" y="460" width="10" height="110" as="geometry" />
        </mxCell>
        <mxCell id="aM9ryv3xv72pqoxQDRHE-7" value="rpc-insert-booking" style="html=1;verticalAlign=bottom;endArrow=classic;edgeStyle=elbowEdgeStyle;elbow=vertical;curved=0;rounded=0;endFill=1;" parent="1" source="aM9ryv3xv72pqoxQDRHE-2" target="aM9ryv3xv72pqoxQDRHE-6" edge="1">
          <mxGeometry relative="1" as="geometry">
            <mxPoint x="320" y="190" as="sourcePoint" />
            <Array as="points">
              <mxPoint x="305" y="180" />
            </Array>
          </mxGeometry>
        </mxCell>
        <mxCell id="aM9ryv3xv72pqoxQDRHE-8" value="outcome" style="html=1;verticalAlign=bottom;endArrow=open;dashed=1;endSize=8;edgeStyle=elbowEdgeStyle;elbow=vertical;curved=0;rounded=0;" parent="1" edge="1">
          <mxGeometry relative="1" as="geometry">
            <mxPoint x="265" y="360" as="targetPoint" />
            <Array as="points">
              <mxPoint x="315" y="360" />
            </Array>
            <mxPoint x="390" y="360" as="sourcePoint" />
          </mxGeometry>
        </mxCell>
        <mxCell id="1qJho_wK9-XxOotD1mHt-2" value="Make-Route-Service" style="shape=umlLifeline;perimeter=lifelinePerimeter;whiteSpace=wrap;html=1;container=0;dropTarget=0;collapsible=0;recursiveResize=0;outlineConnect=0;portConstraint=eastwest;newEdgeStyle={&quot;edgeStyle&quot;:&quot;elbowEdgeStyle&quot;,&quot;elbow&quot;:&quot;vertical&quot;,&quot;curved&quot;:0,&quot;rounded&quot;:0};" parent="1" vertex="1">
          <mxGeometry x="1460" y="100" width="130" height="640" as="geometry" />
        </mxCell>
        <mxCell id="1qJho_wK9-XxOotD1mHt-3" value="" style="html=1;points=[];perimeter=orthogonalPerimeter;outlineConnect=0;targetShapes=umlLifeline;portConstraint=eastwest;newEdgeStyle={&quot;edgeStyle&quot;:&quot;elbowEdgeStyle&quot;,&quot;elbow&quot;:&quot;vertical&quot;,&quot;curved&quot;:0,&quot;rounded&quot;:0};" parent="1qJho_wK9-XxOotD1mHt-2" vertex="1">
          <mxGeometry x="60" y="400" width="10" height="60" as="geometry" />
        </mxCell>
        <mxCell id="1qJho_wK9-XxOotD1mHt-4" value="DB-Service" style="shape=umlLifeline;perimeter=lifelinePerimeter;whiteSpace=wrap;html=1;container=0;dropTarget=0;collapsible=0;recursiveResize=0;outlineConnect=0;portConstraint=eastwest;newEdgeStyle={&quot;edgeStyle&quot;:&quot;elbowEdgeStyle&quot;,&quot;elbow&quot;:&quot;vertical&quot;,&quot;curved&quot;:0,&quot;rounded&quot;:0};" parent="1" vertex="1">
          <mxGeometry x="480" y="100" width="100" height="640" as="geometry" />
        </mxCell>
        <mxCell id="1qJho_wK9-XxOotD1mHt-5" value="" style="html=1;points=[];perimeter=orthogonalPerimeter;outlineConnect=0;targetShapes=umlLifeline;portConstraint=eastwest;newEdgeStyle={&quot;edgeStyle&quot;:&quot;elbowEdgeStyle&quot;,&quot;elbow&quot;:&quot;vertical&quot;,&quot;curved&quot;:0,&quot;rounded&quot;:0};" parent="1qJho_wK9-XxOotD1mHt-4" vertex="1">
          <mxGeometry x="45" y="90" width="10" height="40" as="geometry" />
        </mxCell>
        <mxCell id="IHLAlMQquA-5X1Fei5Ps-38" value="" style="html=1;points=[];perimeter=orthogonalPerimeter;outlineConnect=0;targetShapes=umlLifeline;portConstraint=eastwest;newEdgeStyle={&quot;edgeStyle&quot;:&quot;elbowEdgeStyle&quot;,&quot;elbow&quot;:&quot;vertical&quot;,&quot;curved&quot;:0,&quot;rounded&quot;:0};" parent="1qJho_wK9-XxOotD1mHt-4" vertex="1">
          <mxGeometry x="45" y="490" width="10" height="50" as="geometry" />
        </mxCell>
        <mxCell id="1qJho_wK9-XxOotD1mHt-6" value="Node-Selector-Service" style="shape=umlLifeline;perimeter=lifelinePerimeter;whiteSpace=wrap;html=1;container=0;dropTarget=0;collapsible=0;recursiveResize=0;outlineConnect=0;portConstraint=eastwest;newEdgeStyle={&quot;edgeStyle&quot;:&quot;elbowEdgeStyle&quot;,&quot;elbow&quot;:&quot;vertical&quot;,&quot;curved&quot;:0,&quot;rounded&quot;:0};" parent="1" vertex="1">
          <mxGeometry x="860" y="100" width="130" height="640" as="geometry" />
        </mxCell>
        <mxCell id="1qJho_wK9-XxOotD1mHt-7" value="" style="html=1;points=[];perimeter=orthogonalPerimeter;outlineConnect=0;targetShapes=umlLifeline;portConstraint=eastwest;newEdgeStyle={&quot;edgeStyle&quot;:&quot;elbowEdgeStyle&quot;,&quot;elbow&quot;:&quot;vertical&quot;,&quot;curved&quot;:0,&quot;rounded&quot;:0};" parent="1qJho_wK9-XxOotD1mHt-6" vertex="1">
          <mxGeometry x="60" y="240" width="10" height="180" as="geometry" />
        </mxCell>
        <mxCell id="1qJho_wK9-XxOotD1mHt-8" value="RouteDB" style="shape=umlLifeline;perimeter=lifelinePerimeter;whiteSpace=wrap;html=1;container=0;dropTarget=0;collapsible=0;recursiveResize=0;outlineConnect=0;portConstraint=eastwest;newEdgeStyle={&quot;edgeStyle&quot;:&quot;elbowEdgeStyle&quot;,&quot;elbow&quot;:&quot;vertical&quot;,&quot;curved&quot;:0,&quot;rounded&quot;:0};" parent="1" vertex="1">
          <mxGeometry x="620" y="100" width="100" height="640" as="geometry" />
        </mxCell>
        <mxCell id="1qJho_wK9-XxOotD1mHt-9" value="" style="html=1;points=[];perimeter=orthogonalPerimeter;outlineConnect=0;targetShapes=umlLifeline;portConstraint=eastwest;newEdgeStyle={&quot;edgeStyle&quot;:&quot;elbowEdgeStyle&quot;,&quot;elbow&quot;:&quot;vertical&quot;,&quot;curved&quot;:0,&quot;rounded&quot;:0};" parent="1qJho_wK9-XxOotD1mHt-8" vertex="1">
          <mxGeometry x="45" y="98" width="10" height="22" as="geometry" />
        </mxCell>
        <mxCell id="IHLAlMQquA-5X1Fei5Ps-41" value="" style="html=1;points=[];perimeter=orthogonalPerimeter;outlineConnect=0;targetShapes=umlLifeline;portConstraint=eastwest;newEdgeStyle={&quot;edgeStyle&quot;:&quot;elbowEdgeStyle&quot;,&quot;elbow&quot;:&quot;vertical&quot;,&quot;curved&quot;:0,&quot;rounded&quot;:0};" parent="1qJho_wK9-XxOotD1mHt-8" vertex="1">
          <mxGeometry x="45" y="498" width="10" height="22" as="geometry" />
        </mxCell>
        <mxCell id="1qJho_wK9-XxOotD1mHt-10" value="BookingDB" style="shape=umlLifeline;perimeter=lifelinePerimeter;whiteSpace=wrap;html=1;container=0;dropTarget=0;collapsible=0;recursiveResize=0;outlineConnect=0;portConstraint=eastwest;newEdgeStyle={&quot;edgeStyle&quot;:&quot;elbowEdgeStyle&quot;,&quot;elbow&quot;:&quot;vertical&quot;,&quot;curved&quot;:0,&quot;rounded&quot;:0};" parent="1" vertex="1">
          <mxGeometry x="750" y="100" width="100" height="640" as="geometry" />
        </mxCell>
        <mxCell id="1qJho_wK9-XxOotD1mHt-11" value="" style="html=1;points=[];perimeter=orthogonalPerimeter;outlineConnect=0;targetShapes=umlLifeline;portConstraint=eastwest;newEdgeStyle={&quot;edgeStyle&quot;:&quot;elbowEdgeStyle&quot;,&quot;elbow&quot;:&quot;vertical&quot;,&quot;curved&quot;:0,&quot;rounded&quot;:0};" parent="1qJho_wK9-XxOotD1mHt-10" vertex="1">
          <mxGeometry x="45" y="160" width="10" height="60" as="geometry" />
        </mxCell>
        <mxCell id="IHLAlMQquA-5X1Fei5Ps-20" value="" style="html=1;points=[];perimeter=orthogonalPerimeter;outlineConnect=0;targetShapes=umlLifeline;portConstraint=eastwest;newEdgeStyle={&quot;edgeStyle&quot;:&quot;elbowEdgeStyle&quot;,&quot;elbow&quot;:&quot;vertical&quot;,&quot;curved&quot;:0,&quot;rounded&quot;:0};" parent="1qJho_wK9-XxOotD1mHt-10" vertex="1">
          <mxGeometry x="45" y="260" width="10" height="40" as="geometry" />
        </mxCell>
        <mxCell id="1qJho_wK9-XxOotD1mHt-12" value="ORS-App" style="shape=umlLifeline;perimeter=lifelinePerimeter;whiteSpace=wrap;html=1;container=0;dropTarget=0;collapsible=0;recursiveResize=0;outlineConnect=0;portConstraint=eastwest;newEdgeStyle={&quot;edgeStyle&quot;:&quot;elbowEdgeStyle&quot;,&quot;elbow&quot;:&quot;vertical&quot;,&quot;curved&quot;:0,&quot;rounded&quot;:0};" parent="1" vertex="1">
          <mxGeometry x="1300" y="100" width="130" height="640" as="geometry" />
        </mxCell>
        <mxCell id="1qJho_wK9-XxOotD1mHt-13" value="" style="html=1;points=[];perimeter=orthogonalPerimeter;outlineConnect=0;targetShapes=umlLifeline;portConstraint=eastwest;newEdgeStyle={&quot;edgeStyle&quot;:&quot;elbowEdgeStyle&quot;,&quot;elbow&quot;:&quot;vertical&quot;,&quot;curved&quot;:0,&quot;rounded&quot;:0};" parent="1qJho_wK9-XxOotD1mHt-12" vertex="1">
          <mxGeometry x="60" y="317" width="10" height="33" as="geometry" />
        </mxCell>
        <mxCell id="IHLAlMQquA-5X1Fei5Ps-1" value="ORS-Dao" style="shape=umlLifeline;perimeter=lifelinePerimeter;whiteSpace=wrap;html=1;container=0;dropTarget=0;collapsible=0;recursiveResize=0;outlineConnect=0;portConstraint=eastwest;newEdgeStyle={&quot;edgeStyle&quot;:&quot;elbowEdgeStyle&quot;,&quot;elbow&quot;:&quot;vertical&quot;,&quot;curved&quot;:0,&quot;rounded&quot;:0};" parent="1" vertex="1">
          <mxGeometry x="1060" y="100" width="130" height="640" as="geometry" />
        </mxCell>
        <mxCell id="IHLAlMQquA-5X1Fei5Ps-2" value="" style="html=1;points=[];perimeter=orthogonalPerimeter;outlineConnect=0;targetShapes=umlLifeline;portConstraint=eastwest;newEdgeStyle={&quot;edgeStyle&quot;:&quot;elbowEdgeStyle&quot;,&quot;elbow&quot;:&quot;vertical&quot;,&quot;curved&quot;:0,&quot;rounded&quot;:0};" parent="IHLAlMQquA-5X1Fei5Ps-1" vertex="1">
          <mxGeometry x="60" y="310" width="10" height="60" as="geometry" />
        </mxCell>
        <mxCell id="IHLAlMQquA-5X1Fei5Ps-3" style="edgeStyle=elbowEdgeStyle;rounded=0;orthogonalLoop=1;jettySize=auto;html=1;elbow=vertical;curved=0;" parent="1" target="1qJho_wK9-XxOotD1mHt-5" edge="1">
          <mxGeometry relative="1" as="geometry">
            <mxPoint x="400" y="190" as="sourcePoint" />
            <mxPoint x="520" y="190" as="targetPoint" />
            <Array as="points">
              <mxPoint x="463" y="190" />
            </Array>
          </mxGeometry>
        </mxCell>
        <mxCell id="IHLAlMQquA-5X1Fei5Ps-4" value="rpc-insert-booking" style="text;html=1;align=center;verticalAlign=middle;resizable=0;points=[];autosize=1;strokeColor=none;fillColor=none;" parent="1" vertex="1">
          <mxGeometry x="395" y="167" width="120" height="30" as="geometry" />
        </mxCell>
        <mxCell id="IHLAlMQquA-5X1Fei5Ps-5" value="" style="edgeStyle=elbowEdgeStyle;rounded=0;orthogonalLoop=1;jettySize=auto;html=1;elbow=vertical;curved=0;" parent="1" edge="1">
          <mxGeometry relative="1" as="geometry">
            <mxPoint x="535" y="198" as="sourcePoint" />
            <mxPoint x="665" y="198" as="targetPoint" />
            <Array as="points">
              <mxPoint x="600" y="198" />
            </Array>
          </mxGeometry>
        </mxCell>
        <mxCell id="IHLAlMQquA-5X1Fei5Ps-6" value="insert-booking" style="text;html=1;align=center;verticalAlign=middle;resizable=0;points=[];autosize=1;strokeColor=none;fillColor=none;" parent="1" vertex="1">
          <mxGeometry x="550" y="175" width="100" height="30" as="geometry" />
        </mxCell>
        <mxCell id="IHLAlMQquA-5X1Fei5Ps-7" value="booking-id" style="html=1;verticalAlign=bottom;endArrow=open;dashed=1;endSize=8;edgeStyle=elbowEdgeStyle;elbow=vertical;curved=0;rounded=0;" parent="1" target="1qJho_wK9-XxOotD1mHt-5" edge="1">
          <mxGeometry relative="1" as="geometry">
            <mxPoint x="537.5" y="220" as="targetPoint" />
            <Array as="points">
              <mxPoint x="587.5" y="220" />
            </Array>
            <mxPoint x="662.5" y="220" as="sourcePoint" />
          </mxGeometry>
        </mxCell>
        <mxCell id="IHLAlMQquA-5X1Fei5Ps-8" value="booking-id" style="html=1;verticalAlign=bottom;endArrow=open;dashed=1;endSize=8;edgeStyle=elbowEdgeStyle;elbow=vertical;curved=0;rounded=0;" parent="1" edge="1">
          <mxGeometry relative="1" as="geometry">
            <mxPoint x="400" y="230" as="targetPoint" />
            <Array as="points">
              <mxPoint x="447.5" y="230" />
            </Array>
            <mxPoint x="522.5" y="230" as="sourcePoint" />
          </mxGeometry>
        </mxCell>
        <mxCell id="IHLAlMQquA-5X1Fei5Ps-9" style="edgeStyle=elbowEdgeStyle;rounded=0;orthogonalLoop=1;jettySize=auto;html=1;elbow=vertical;curved=0;" parent="1" source="aM9ryv3xv72pqoxQDRHE-6" target="1qJho_wK9-XxOotD1mHt-11" edge="1">
          <mxGeometry relative="1" as="geometry">
            <mxPoint x="790" y="260" as="targetPoint" />
            <Array as="points">
              <mxPoint x="575" y="260" />
            </Array>
          </mxGeometry>
        </mxCell>
        <mxCell id="IHLAlMQquA-5X1Fei5Ps-10" value="insert-booking-into cluster" style="text;html=1;align=center;verticalAlign=middle;resizable=0;points=[];autosize=1;strokeColor=none;fillColor=none;" parent="1" vertex="1">
          <mxGeometry x="525" y="237" width="160" height="30" as="geometry" />
        </mxCell>
        <mxCell id="IHLAlMQquA-5X1Fei5Ps-16" style="edgeStyle=elbowEdgeStyle;rounded=0;orthogonalLoop=1;jettySize=auto;html=1;elbow=vertical;curved=0;endArrow=open;endFill=0;entryX=1.001;entryY=0.088;entryDx=0;entryDy=0;entryPerimeter=0;" parent="1" target="IHLAlMQquA-5X1Fei5Ps-23" edge="1">
          <mxGeometry relative="1" as="geometry">
            <mxPoint x="400" y="340" as="sourcePoint" />
            <mxPoint x="940" y="340" as="targetPoint" />
            <Array as="points">
              <mxPoint x="650" y="340" />
            </Array>
          </mxGeometry>
        </mxCell>
        <mxCell id="IHLAlMQquA-5X1Fei5Ps-19" value="msg-send-node-for-computation" style="text;html=1;align=center;verticalAlign=middle;resizable=0;points=[];autosize=1;strokeColor=none;fillColor=none;" parent="1" vertex="1">
          <mxGeometry x="510" y="317" width="190" height="30" as="geometry" />
        </mxCell>
        <mxCell id="IHLAlMQquA-5X1Fei5Ps-21" style="edgeStyle=elbowEdgeStyle;rounded=0;orthogonalLoop=1;jettySize=auto;html=1;elbow=vertical;curved=0;exitX=0.996;exitY=0.729;exitDx=0;exitDy=0;exitPerimeter=0;" parent="1" source="IHLAlMQquA-5X1Fei5Ps-23" edge="1">
          <mxGeometry relative="1" as="geometry">
            <mxPoint x="940" y="360" as="sourcePoint" />
            <mxPoint x="805" y="360" as="targetPoint" />
          </mxGeometry>
        </mxCell>
        <mxCell id="IHLAlMQquA-5X1Fei5Ps-23" value="get-cluster" style="text;html=1;align=center;verticalAlign=middle;resizable=0;points=[];autosize=1;strokeColor=none;fillColor=none;" parent="1" vertex="1">
          <mxGeometry x="840" y="338" width="80" height="30" as="geometry" />
        </mxCell>
        <mxCell id="IHLAlMQquA-5X1Fei5Ps-24" value="cluster-nodes" style="html=1;verticalAlign=bottom;endArrow=open;dashed=1;endSize=8;edgeStyle=elbowEdgeStyle;elbow=vertical;curved=0;rounded=0;" parent="1" source="IHLAlMQquA-5X1Fei5Ps-20" target="1qJho_wK9-XxOotD1mHt-7" edge="1">
          <mxGeometry relative="1" as="geometry">
            <mxPoint x="935" y="400" as="targetPoint" />
            <Array as="points">
              <mxPoint x="860" y="400" />
            </Array>
            <mxPoint x="810" y="400" as="sourcePoint" />
          </mxGeometry>
        </mxCell>
        <mxCell id="IHLAlMQquA-5X1Fei5Ps-25" style="edgeStyle=elbowEdgeStyle;rounded=0;orthogonalLoop=1;jettySize=auto;html=1;elbow=vertical;curved=0;" parent="1" edge="1">
          <mxGeometry relative="1" as="geometry">
            <mxPoint x="930" y="410" as="sourcePoint" />
            <mxPoint x="1120" y="410" as="targetPoint" />
          </mxGeometry>
        </mxCell>
        <mxCell id="IHLAlMQquA-5X1Fei5Ps-26" value="rpc-get-distance-matrix" style="text;html=1;align=center;verticalAlign=middle;resizable=0;points=[];autosize=1;strokeColor=none;fillColor=none;" parent="1" vertex="1">
          <mxGeometry x="950" y="386" width="150" height="30" as="geometry" />
        </mxCell>
        <mxCell id="IHLAlMQquA-5X1Fei5Ps-27" value="http-get-distance-matrix" style="text;html=1;align=center;verticalAlign=middle;resizable=0;points=[];autosize=1;strokeColor=none;fillColor=none;" parent="1" vertex="1">
          <mxGeometry x="1160" y="393" width="150" height="30" as="geometry" />
        </mxCell>
        <mxCell id="IHLAlMQquA-5X1Fei5Ps-28" style="edgeStyle=elbowEdgeStyle;rounded=0;orthogonalLoop=1;jettySize=auto;html=1;elbow=vertical;curved=0;" parent="1" edge="1">
          <mxGeometry relative="1" as="geometry">
            <mxPoint x="1130.0000000000002" y="416.00297297297294" as="sourcePoint" />
            <mxPoint x="1360" y="416.00000000000006" as="targetPoint" />
          </mxGeometry>
        </mxCell>
        <mxCell id="IHLAlMQquA-5X1Fei5Ps-30" value="distance-matrix" style="html=1;verticalAlign=bottom;endArrow=open;dashed=1;endSize=8;edgeStyle=elbowEdgeStyle;elbow=vertical;curved=0;rounded=0;" parent="1" source="IHLAlMQquA-5X1Fei5Ps-2" edge="1">
          <mxGeometry relative="1" as="geometry">
            <mxPoint x="930" y="470" as="targetPoint" />
            <Array as="points">
              <mxPoint x="1070" y="470" />
            </Array>
            <mxPoint x="1160" y="470" as="sourcePoint" />
          </mxGeometry>
        </mxCell>
        <mxCell id="IHLAlMQquA-5X1Fei5Ps-31" value="distance-matrix" style="html=1;verticalAlign=bottom;endArrow=open;dashed=1;endSize=8;edgeStyle=elbowEdgeStyle;elbow=vertical;curved=0;rounded=0;" parent="1" edge="1">
          <mxGeometry relative="1" as="geometry">
            <mxPoint x="1130.0000000000002" y="450.30769230769226" as="targetPoint" />
            <Array as="points" />
            <mxPoint x="1360" y="450" as="sourcePoint" />
          </mxGeometry>
        </mxCell>
        <mxCell id="IHLAlMQquA-5X1Fei5Ps-32" style="edgeStyle=elbowEdgeStyle;rounded=0;orthogonalLoop=1;jettySize=auto;html=1;elbow=vertical;curved=0;endArrow=open;endFill=0;" parent="1" edge="1">
          <mxGeometry relative="1" as="geometry">
            <mxPoint x="930" y="500" as="sourcePoint" />
            <mxPoint x="1520" y="500" as="targetPoint" />
          </mxGeometry>
        </mxCell>
        <mxCell id="IHLAlMQquA-5X1Fei5Ps-33" value="msg-make-route" style="text;html=1;align=center;verticalAlign=middle;resizable=0;points=[];autosize=1;strokeColor=none;fillColor=none;" parent="1" vertex="1">
          <mxGeometry x="1226" y="478" width="110" height="30" as="geometry" />
        </mxCell>
        <mxCell id="IHLAlMQquA-5X1Fei5Ps-34" style="edgeStyle=elbowEdgeStyle;rounded=0;orthogonalLoop=1;jettySize=auto;html=1;elbow=vertical;curved=0;endArrow=open;endFill=0;" parent="1" edge="1">
          <mxGeometry relative="1" as="geometry">
            <mxPoint x="1520" y="560" as="sourcePoint" />
            <mxPoint x="400" y="560" as="targetPoint" />
          </mxGeometry>
        </mxCell>
        <mxCell id="IHLAlMQquA-5X1Fei5Ps-36" value="msg-route-ready" style="text;html=1;align=center;verticalAlign=middle;resizable=0;points=[];autosize=1;strokeColor=none;fillColor=none;" parent="1" vertex="1">
          <mxGeometry x="1220" y="538" width="110" height="30" as="geometry" />
        </mxCell>
        <mxCell id="IHLAlMQquA-5X1Fei5Ps-39" style="edgeStyle=elbowEdgeStyle;rounded=0;orthogonalLoop=1;jettySize=auto;html=1;elbow=vertical;curved=0;" parent="1" edge="1">
          <mxGeometry relative="1" as="geometry">
            <mxPoint x="400" y="591" as="sourcePoint" />
            <mxPoint x="525" y="590" as="targetPoint" />
          </mxGeometry>
        </mxCell>
        <mxCell id="IHLAlMQquA-5X1Fei5Ps-40" value="rpc-insert-route-info" style="text;html=1;align=center;verticalAlign=middle;resizable=0;points=[];autosize=1;strokeColor=none;fillColor=none;" parent="1" vertex="1">
          <mxGeometry x="395" y="568" width="130" height="30" as="geometry" />
        </mxCell>
        <mxCell id="IHLAlMQquA-5X1Fei5Ps-42" style="edgeStyle=elbowEdgeStyle;rounded=0;orthogonalLoop=1;jettySize=auto;html=1;elbow=vertical;curved=0;" parent="1" edge="1">
          <mxGeometry relative="1" as="geometry">
            <mxPoint x="535" y="597.9952631578948" as="sourcePoint" />
            <mxPoint x="665" y="597.9952631578948" as="targetPoint" />
          </mxGeometry>
        </mxCell>
        <mxCell id="IHLAlMQquA-5X1Fei5Ps-43" value="insert-route-info" style="text;html=1;align=center;verticalAlign=middle;resizable=0;points=[];autosize=1;strokeColor=none;fillColor=none;" parent="1" vertex="1">
          <mxGeometry x="540" y="578" width="110" height="30" as="geometry" />
        </mxCell>
        <mxCell id="IHLAlMQquA-5X1Fei5Ps-44" value="Notify-Service" style="shape=umlLifeline;perimeter=lifelinePerimeter;whiteSpace=wrap;html=1;container=0;dropTarget=0;collapsible=0;recursiveResize=0;outlineConnect=0;portConstraint=eastwest;newEdgeStyle={&quot;edgeStyle&quot;:&quot;elbowEdgeStyle&quot;,&quot;elbow&quot;:&quot;vertical&quot;,&quot;curved&quot;:0,&quot;rounded&quot;:0};" parent="1" vertex="1">
          <mxGeometry x="1610" y="100" width="130" height="640" as="geometry" />
        </mxCell>
        <mxCell id="IHLAlMQquA-5X1Fei5Ps-45" value="" style="html=1;points=[];perimeter=orthogonalPerimeter;outlineConnect=0;targetShapes=umlLifeline;portConstraint=eastwest;newEdgeStyle={&quot;edgeStyle&quot;:&quot;elbowEdgeStyle&quot;,&quot;elbow&quot;:&quot;vertical&quot;,&quot;curved&quot;:0,&quot;rounded&quot;:0};" parent="IHLAlMQquA-5X1Fei5Ps-44" vertex="1">
          <mxGeometry x="60" y="550" width="10" height="60" as="geometry" />
        </mxCell>
        <mxCell id="IHLAlMQquA-5X1Fei5Ps-46" style="edgeStyle=elbowEdgeStyle;rounded=0;orthogonalLoop=1;jettySize=auto;html=1;elbow=vertical;curved=0;endArrow=open;endFill=0;" parent="1" edge="1">
          <mxGeometry relative="1" as="geometry">
            <mxPoint x="400" y="650" as="sourcePoint" />
            <mxPoint x="1670" y="650" as="targetPoint" />
          </mxGeometry>
        </mxCell>
        <mxCell id="IHLAlMQquA-5X1Fei5Ps-47" value="msg-notify-users" style="text;html=1;align=center;verticalAlign=middle;resizable=0;points=[];autosize=1;strokeColor=none;fillColor=none;" parent="1" vertex="1">
          <mxGeometry x="961" y="627" width="110" height="30" as="geometry" />
        </mxCell>
      </root>
    </mxGraphModel>
  </diagram>
</mxfile>
